<?xml version="1.0" encoding="UTF-8" standalone="no"?>
<svg
   xmlns:dc="http://purl.org/dc/elements/1.1/"
   xmlns:cc="http://creativecommons.org/ns#"
   xmlns:rdf="http://www.w3.org/1999/02/22-rdf-syntax-ns#"
   xmlns:svg="http://www.w3.org/2000/svg"
   xmlns="http://www.w3.org/2000/svg"
   xmlns:sodipodi="http://sodipodi.sourceforge.net/DTD/sodipodi-0.dtd"
   xmlns:inkscape="http://www.inkscape.org/namespaces/inkscape"
   xml:space="preserve"
   enable-background="new 0 0 387 94.9"
   viewBox="0 0 387 94.9"
   y="0px"
   x="0px"
   id="Layer_1"
   version="1.1"
   inkscape:version="0.92.4 (f8dce91, 2019-08-02)"
   sodipodi:docname="logo-dark.svg"><sodipodi:namedview
   pagecolor="#ffffff"
   bordercolor="#666666"
   borderopacity="1"
   objecttolerance="10"
   gridtolerance="10"
   guidetolerance="10"
   inkscape:pageopacity="0"
   inkscape:pageshadow="2"
   inkscape:window-width="1853"
   inkscape:window-height="1025"
   id="namedview30"
   showgrid="false"
   inkscape:zoom="3.4521964"
   inkscape:cx="254.30929"
   inkscape:cy="41.636945"
   inkscape:window-x="67"
   inkscape:window-y="27"
   inkscape:window-maximized="1"
   inkscape:current-layer="Layer_1" /><metadata
   id="metadata25"><rdf:RDF><cc:Work
       rdf:about=""><dc:format>image/svg+xml</dc:format><dc:type
         rdf:resource="http://purl.org/dc/dcmitype/StillImage" /><dc:title /></cc:Work></rdf:RDF></metadata><defs
   id="defs23"><marker
     style="overflow:visible"
     id="Arrow1Lstart"
     refX="0.0"
     refY="0.0"
     orient="auto"><path
       transform="scale(0.8) translate(12.5,0)"
       style="fill-rule:evenodd;stroke:#000000;stroke-width:1.0pt"
       d="M 0.0,0.0 L 5.0,-5.0 L -12.5,0.0 L 5.0,5.0 L 0.0,0.0 z "
       id="path4875" /></marker></defs><g
   id="layer1" /><g
   id="layer2"><path
     id="path3"
     d="M120.3,58.8c0,0-57.2-57.2-57.2-57.2c-0.5-0.5-1.2-0.8-2-0.8c-0.8,0-1.5,0.3-2.1,0.8L1.8,58.8  C1.3,59.4,1,60.1,1,60.9c0,0.8,0.3,1.5,0.8,2.1v0l15.1,15.1c0.5,0.5,1.3,0.8,2.1,0.8c0.8,0,1.5-0.3,2.1-0.9c0,0,37.9-38,38-38  c0.5-0.5,1.3-0.8,2-0.8c0.8,0,1.5,0.3,2,0.8l38.1,38.1c0.5,0.5,1.2,0.8,2,0.8c0.8,0,1.6-0.3,2.1-0.9l15-15c0.6-0.5,0.9-1.3,0.9-2.1  S120.9,59.3,120.3,58.8z"
     fill="#6C83AC"
     style="fill:#f9ffff;fill-opacity:1" /><path
     id="path5"
     d="M78.2,73.3L63.1,58.2c-0.5-0.5-1.2-0.8-1.9-0.8c-0.8,0-1.4,0.3-1.9,0.8L44.1,73.3c-0.5,0.5-0.8,1.2-0.8,1.9  c0,0.8,0.3,1.4,0.8,1.9l0,0l15.1,15.1c0.5,0.5,1.2,0.8,1.9,0.8s1.4-0.3,1.9-0.8l15.1-15.1v0c0.5-0.5,0.8-1.2,0.8-1.9  C79,74.5,78.7,73.8,78.2,73.3z"
     fill="#90CD95"
     style="fill:#f9ffff;fill-opacity:1" /><g
     id="g7"
     style=""><path
       id="path9"
       d="M352.6,23.1c-19.9,0-33.8,14.7-33.8,35.7c0,20.8,14.2,35.9,33.8,35.9c19.6,0,33.8-15.1,33.8-35.9   C386.4,37.8,372.5,23.1,352.6,23.1z M352.6,33.9c10.3,0,21.3,7.8,21.3,24.9c0,12.1-6.7,25.1-21.3,25.1c-14.7,0-21.3-13-21.3-25.1   C331.2,41.7,342.3,33.9,352.6,33.9z"
       fill="#414347"
       style="fill:#f9ffff;fill-opacity:1" /><path
       id="path11"
       d="M283.1,59.7c0-21.9-13.2-36.6-32.8-36.6c-19.2,0-33.7,15.4-33.7,35.7c0,21.1,14.4,35.9,34.9,35.9   c10.5,0,19.5-3.9,26.5-10.7c0,0,0.1-0.1,0.1-0.1c0.1-0.1,0.1-0.2,0.2-0.3c0-0.1,0.1-0.3,0.1-0.4c0-0.3-0.1-0.5-0.3-0.7l-0.1-0.2   l-3.8-5.2l-0.3-0.5c-0.2-0.2-0.5-0.3-0.8-0.3c-0.3,0-0.6,0.1-0.8,0.3c-0.1,0.1-0.1,0.1-0.2,0.2c-5.1,5-12.3,7.9-19.7,7.9   c-10.6,0-21.7-6.7-23.1-21.5c0,0,52.6,0,52.6,0c0,0,0,0,0,0c0.4,0,0.8-0.2,1-0.5c0.1-0.1,0.1-0.2,0.2-0.3c0-0.1,0.1-0.2,0.1-0.3   C283.1,61.9,283.1,59.7,283.1,59.7z M229.1,53.8c0.9-10.3,8.3-20.6,21-20.6c7,0,20.4,4.3,21.2,20.6H229.1z"
       fill="#414347"
       style="fill:#f9ffff;fill-opacity:1" /><path
       id="path13"
       d="M204.6,2.1c0,0,0-0.1,0-0.1c0-0.6-0.5-1.1-1.2-1.2c0,0-0.2,0-0.2,0c0,0-9.3,1.5-9.4,1.5   c-0.6,0.1-1.1,0.6-1.2,1.2c0,0,0,0.1,0,0.1v88.1c0,0,0,0.1,0,0.1c0,0.5,0.3,0.9,0.7,1.1c0,0,0.1,0,0.1,0c0.1,0.1,0.3,0.1,0.4,0.1   c0,0,0,0,0,0c0,0,0,0,0,0h9.3c0,0,0,0,0,0c0,0,0,0,0,0c0.4,0,0.8-0.2,1-0.5c0.1-0.1,0.1-0.2,0.2-0.3c0-0.1,0.1-0.2,0.1-0.4   c0,0,0-0.1,0-0.1V2.1z"
       fill="#414347"
       style="fill:#f9ffff;fill-opacity:1" /><path
       id="path15"
       d="M306.9,26c0-0.6-0.5-1.1-1.2-1.2c0,0-9.6,0-9.6,0c-0.6,0.1-1.1,0.6-1.2,1.2c0,0,0,65.9,0,65.9   c0,0.5,0.3,0.9,0.7,1.1c0,0,0.1,0,0.1,0c0.1,0.1,0.3,0.1,0.4,0.1c0,0,9.4,0,9.5,0c0.4,0,0.8-0.2,1-0.5c0.1-0.1,0.1-0.2,0.2-0.3   c0-0.1,0.1-0.2,0.1-0.4C306.9,91.9,306.9,26,306.9,26z"
       fill="#414347"
       style="fill:#f9ffff;fill-opacity:1" /><path
       id="path17"
       d="M306.9,1.9c0-0.6-0.5-1.2-1.2-1.2c0,0-9.6,1.5-9.6,1.5c-0.6,0.1-1.1,0.6-1.2,1.2c0,0,0,10.6,0,10.6   c0,0.5,0.3,0.9,0.7,1.1c0,0,0.1,0,0.1,0c0.1,0.1,0.3,0.1,0.4,0.1c0,0,9.4,0,9.5,0c0.4,0,0.8-0.2,1-0.5c0.1-0.1,0.1-0.2,0.2-0.3   c0-0.1,0.1-0.2,0.1-0.4C306.9,14.1,306.9,1.9,306.9,1.9z"
       fill="#414347"
       style="fill:#f9ffff;fill-opacity:1" /><path
       id="path19"
       d="M184.7,4.3c-0.1-0.1-0.3-0.2-0.4-0.3c-0.5-0.3-1-0.6-1-0.6c-2.8-1.5-6.3-2.6-10.6-2.6   c-12.4,0-20.1,8.9-20.1,22.7v4.3c0,0-6.8,0-6.8,0c-0.6,0-1.1,0.6-1.2,1.2c0,0,0,8.2,0,8.3c0,0.7,0.6,1.2,1.2,1.2c0,0,6.7,0,6.7,0   s0,53.4,0,53.5c0.1,0.6,0.6,1.1,1.2,1.1c0,0,9.5,0,9.5,0c0.7,0,1.2-0.5,1.2-1.2c0,0,0-53.4,0-53.4s15,0,15,0c0.7,0,1.3-0.6,1.3-1.3   v-8.1c0-0.7-0.5-1.2-1.2-1.3c0,0-0.1,0-0.2,0h-14.9v-4.3c0-8.1,3.4-12.4,9.9-12.4c2.1,0,3.7,0.4,5.4,1.3c0,0,0.1,0,0.1,0   c0.1,0.1,0.3,0.1,0.5,0.1c0.4,0,0.8-0.2,1-0.5c0.1-0.1,0.1-0.2,0.2-0.3c0.7-1.2,1.9-3.3,3.4-5.9c0.1-0.1,0.1-0.2,0.2-0.3   c0-0.1,0.1-0.3,0.1-0.4C185,4.8,184.9,4.5,184.7,4.3z"
       fill="#414347"
       style="fill:#f9ffff;fill-opacity:1" /></g><flowRoot
     style="font-style:normal;font-weight:normal;line-height:0.01%;font-family:sans-serif;letter-spacing:0px;word-spacing:0px;fill:#000000;fill-opacity:1;stroke:none;stroke-width:1px;stroke-linecap:butt;stroke-linejoin:miter;stroke-opacity:1"
     id="flowRoot4153"
     xml:space="preserve"><flowRegion
       id="flowRegion4155"><rect
         y="120.29868"
         x="279.3855"
         height="42.60424"
         width="112.24579"
         id="rect4157" /></flowRegion><flowPara
       id="flowPara4159"
       style="font-size:40px;line-height:1.25">staf</flowPara></flowRoot></g><path
   style="fill:#6c83ac;fill-opacity:0.96078431;stroke-width:0.30167478"
   d="m 243.32511,94.916676 c -0.3775,-0.14078 -0.83699,-0.51546 -1.02107,-0.83261 -0.22778,-0.39239 -0.33473,-7.11187 -0.33473,-21.03063 V 52.599448 l 0.77117,-0.71101 0.77115,-0.711009 h 70.81871 70.81869 l 0.8278,0.600365 0.82781,0.600366 v 20.790366 c 0,20.76799 -6.3e-4,20.79096 -0.66132,21.34219 -0.6458,0.53886 -2.32264,0.55311 -71.39658,0.60687 -40.37804,0.0314 -71.02984,-0.0548 -71.42163,-0.20091 z"
   id="path3990"
   inkscape:connector-curvature="0" /><g
   aria-label="RESELLER"
   style="font-style:normal;font-weight:normal;font-size:40px;line-height:1.25;font-family:sans-serif;letter-spacing:0px;word-spacing:0px;fill:#000000;fill-opacity:1;stroke:none"
   id="text3994"><path
     d="m 264.8206,83.174706 -4.81067,-7.685334 c 2.376,-0.381333 4.66401,-2.288 4.66401,-5.749333 0,-3.637334 -2.55201,-6.130667 -6.42401,-6.130667 h -8.59466 v 19.565334 h 3.432 v -7.304001 h 3.432 l 4.312,7.304001 z m -7.01067,-10.325334 h -4.72266 v -6.218667 h 4.72266 c 1.936,0 3.344,1.202667 3.344,3.08 0,1.906667 -1.408,3.138667 -3.344,3.138667 z"
     style="font-style:normal;font-variant:normal;font-weight:600;font-stretch:normal;font-size:29.33333397px;font-family:'Proxima Nova';-inkscape-font-specification:'Proxima Nova Semi-Bold';fill:#ffffff"
     id="path26" /><path
     d="m 281.50852,83.174706 v -3.021334 h -9.97333 v -5.456 h 9.768 v -3.021333 h -9.768 v -5.045334 h 9.97333 v -3.021333 h -13.40533 v 19.565334 z"
     style="font-style:normal;font-variant:normal;font-weight:600;font-stretch:normal;font-size:29.33333397px;font-family:'Proxima Nova';-inkscape-font-specification:'Proxima Nova Semi-Bold';fill:#ffffff"
     id="path28" /><path
     d="m 291.72156,83.526706 c 5.25067,0 7.568,-2.816001 7.568,-6.072001 0,-7.274666 -11.38133,-5.016 -11.38133,-8.682666 0,-1.437334 1.29067,-2.434667 3.28533,-2.434667 2.05334,0 4.136,0.704 5.69067,2.258667 l 1.936,-2.552001 c -1.78933,-1.76 -4.28267,-2.757333 -7.304,-2.757333 -4.312,0 -7.128,2.493333 -7.128,5.749334 0,7.186666 11.38133,4.634666 11.38133,8.741333 0,1.32 -1.08533,2.698667 -3.90133,2.698667 -2.728,0 -4.86933,-1.290667 -6.18933,-2.728 l -1.936,2.669333 c 1.76,1.818667 4.37066,3.109334 7.97866,3.109334 z"
     style="font-style:normal;font-variant:normal;font-weight:600;font-stretch:normal;font-size:29.33333397px;font-family:'Proxima Nova';-inkscape-font-specification:'Proxima Nova Semi-Bold';fill:#ffffff"
     id="path30" /><path
     d="m 315.82623,83.174706 v -3.021334 h -9.97333 v -5.456 h 9.768 v -3.021333 h -9.768 v -5.045334 h 9.97333 V 63.609372 H 302.4209 v 19.565334 z"
     style="font-style:normal;font-variant:normal;font-weight:600;font-stretch:normal;font-size:29.33333397px;font-family:'Proxima Nova';-inkscape-font-specification:'Proxima Nova Semi-Bold';fill:#ffffff"
     id="path32" /><path
     d="m 331.14327,83.174706 v -3.021334 h -8.624 v -16.544 h -3.432 v 19.565334 z"
     style="font-style:normal;font-variant:normal;font-weight:600;font-stretch:normal;font-size:29.33333397px;font-family:'Proxima Nova';-inkscape-font-specification:'Proxima Nova Semi-Bold';fill:#ffffff"
     id="path34" /><path
     d="m 345.98181,83.174706 v -3.021334 h -8.624 v -16.544 h -3.432 v 19.565334 z"
     style="font-style:normal;font-variant:normal;font-weight:600;font-stretch:normal;font-size:29.33333397px;font-family:'Proxima Nova';-inkscape-font-specification:'Proxima Nova Semi-Bold';fill:#ffffff"
     id="path36" /><path
     d="m 362.40436,83.174706 v -3.021334 h -9.97333 v -5.456 h 9.768 v -3.021333 h -9.768 v -5.045334 h 9.97333 v -3.021333 h -13.40533 v 19.565334 z"
     style="font-style:normal;font-variant:normal;font-weight:600;font-stretch:normal;font-size:29.33333397px;font-family:'Proxima Nova';-inkscape-font-specification:'Proxima Nova Semi-Bold';fill:#ffffff"
     id="path38" /><path
     d="m 381.0654,83.174706 -4.81067,-7.685334 c 2.376,-0.381333 4.664,-2.288 4.664,-5.749333 0,-3.637334 -2.552,-6.130667 -6.424,-6.130667 h -8.59467 v 19.565334 h 3.432 v -7.304001 h 3.432 l 4.31201,7.304001 z m -7.01067,-10.325334 h -4.72267 v -6.218667 h 4.72267 c 1.936,0 3.344,1.202667 3.344,3.08 0,1.906667 -1.408,3.138667 -3.344,3.138667 z"
     style="font-style:normal;font-variant:normal;font-weight:600;font-stretch:normal;font-size:29.33333397px;font-family:'Proxima Nova';-inkscape-font-specification:'Proxima Nova Semi-Bold';fill:#ffffff"
     id="path40" /></g>
</svg>