<?xml version="1.0" encoding="UTF-8" standalone="no"?>
<svg
   xmlns:dc="http://purl.org/dc/elements/1.1/"
   xmlns:cc="http://creativecommons.org/ns#"
   xmlns:rdf="http://www.w3.org/1999/02/22-rdf-syntax-ns#"
   xmlns:svg="http://www.w3.org/2000/svg"
   xmlns="http://www.w3.org/2000/svg"
   xmlns:sodipodi="http://sodipodi.sourceforge.net/DTD/sodipodi-0.dtd"
   xmlns:inkscape="http://www.inkscape.org/namespaces/inkscape"
   xml:space="preserve"
   enable-background="new 0 0 387 94.9"
   viewBox="0 0 387 94.9"
   y="0px"
   x="0px"
   id="Layer_1"
   version="1.1"
   inkscape:version="0.91 r13725"
   sodipodi:docname="logo-staff-dark.svg"><sodipodi:namedview
     pagecolor="#ffffff"
     bordercolor="#666666"
     borderopacity="1"
     objecttolerance="10"
     gridtolerance="10"
     guidetolerance="10"
     inkscape:pageopacity="0"
     inkscape:pageshadow="2"
     inkscape:window-width="1920"
     inkscape:window-height="1016"
     id="namedview30"
     showgrid="false"
     inkscape:zoom="1.7260982"
     inkscape:cx="238.17122"
     inkscape:cy="-24.454837"
     inkscape:window-x="0"
     inkscape:window-y="27"
     inkscape:window-maximized="1"
     inkscape:current-layer="Layer_1" /><metadata
     id="metadata25"><rdf:RDF><cc:Work
         rdf:about=""><dc:format>image/svg+xml</dc:format><dc:type
           rdf:resource="http://purl.org/dc/dcmitype/StillImage" /><dc:title></dc:title></cc:Work></rdf:RDF></metadata><defs
     id="defs23"><marker
       style="overflow:visible"
       id="Arrow1Lstart"
       refX="0.0"
       refY="0.0"
       orient="auto"><path
         transform="scale(0.8) translate(12.5,0)"
         style="fill-rule:evenodd;stroke:#000000;stroke-width:1.0pt"
         d="M 0.0,0.0 L 5.0,-5.0 L -12.5,0.0 L 5.0,5.0 L 0.0,0.0 z "
         id="path4875" /></marker></defs><g
     id="layer1" /><g
     id="layer2"><path
       id="path3"
       d="M120.3,58.8c0,0-57.2-57.2-57.2-57.2c-0.5-0.5-1.2-0.8-2-0.8c-0.8,0-1.5,0.3-2.1,0.8L1.8,58.8  C1.3,59.4,1,60.1,1,60.9c0,0.8,0.3,1.5,0.8,2.1v0l15.1,15.1c0.5,0.5,1.3,0.8,2.1,0.8c0.8,0,1.5-0.3,2.1-0.9c0,0,37.9-38,38-38  c0.5-0.5,1.3-0.8,2-0.8c0.8,0,1.5,0.3,2,0.8l38.1,38.1c0.5,0.5,1.2,0.8,2,0.8c0.8,0,1.6-0.3,2.1-0.9l15-15c0.6-0.5,0.9-1.3,0.9-2.1  S120.9,59.3,120.3,58.8z"
       fill="#6C83AC"
       style="fill:#f9ffff;fill-opacity:1" /><path
       id="path5"
       d="M78.2,73.3L63.1,58.2c-0.5-0.5-1.2-0.8-1.9-0.8c-0.8,0-1.4,0.3-1.9,0.8L44.1,73.3c-0.5,0.5-0.8,1.2-0.8,1.9  c0,0.8,0.3,1.4,0.8,1.9l0,0l15.1,15.1c0.5,0.5,1.2,0.8,1.9,0.8s1.4-0.3,1.9-0.8l15.1-15.1v0c0.5-0.5,0.8-1.2,0.8-1.9  C79,74.5,78.7,73.8,78.2,73.3z"
       fill="#90CD95"
       style="fill:#f9ffff;fill-opacity:1" /><g
       id="g7"
       style=""><path
         id="path9"
         d="M352.6,23.1c-19.9,0-33.8,14.7-33.8,35.7c0,20.8,14.2,35.9,33.8,35.9c19.6,0,33.8-15.1,33.8-35.9   C386.4,37.8,372.5,23.1,352.6,23.1z M352.6,33.9c10.3,0,21.3,7.8,21.3,24.9c0,12.1-6.7,25.1-21.3,25.1c-14.7,0-21.3-13-21.3-25.1   C331.2,41.7,342.3,33.9,352.6,33.9z"
         fill="#414347"
         style="fill:#f9ffff;fill-opacity:1" /><path
         id="path11"
         d="M283.1,59.7c0-21.9-13.2-36.6-32.8-36.6c-19.2,0-33.7,15.4-33.7,35.7c0,21.1,14.4,35.9,34.9,35.9   c10.5,0,19.5-3.9,26.5-10.7c0,0,0.1-0.1,0.1-0.1c0.1-0.1,0.1-0.2,0.2-0.3c0-0.1,0.1-0.3,0.1-0.4c0-0.3-0.1-0.5-0.3-0.7l-0.1-0.2   l-3.8-5.2l-0.3-0.5c-0.2-0.2-0.5-0.3-0.8-0.3c-0.3,0-0.6,0.1-0.8,0.3c-0.1,0.1-0.1,0.1-0.2,0.2c-5.1,5-12.3,7.9-19.7,7.9   c-10.6,0-21.7-6.7-23.1-21.5c0,0,52.6,0,52.6,0c0,0,0,0,0,0c0.4,0,0.8-0.2,1-0.5c0.1-0.1,0.1-0.2,0.2-0.3c0-0.1,0.1-0.2,0.1-0.3   C283.1,61.9,283.1,59.7,283.1,59.7z M229.1,53.8c0.9-10.3,8.3-20.6,21-20.6c7,0,20.4,4.3,21.2,20.6H229.1z"
         fill="#414347"
         style="fill:#f9ffff;fill-opacity:1" /><path
         id="path13"
         d="M204.6,2.1c0,0,0-0.1,0-0.1c0-0.6-0.5-1.1-1.2-1.2c0,0-0.2,0-0.2,0c0,0-9.3,1.5-9.4,1.5   c-0.6,0.1-1.1,0.6-1.2,1.2c0,0,0,0.1,0,0.1v88.1c0,0,0,0.1,0,0.1c0,0.5,0.3,0.9,0.7,1.1c0,0,0.1,0,0.1,0c0.1,0.1,0.3,0.1,0.4,0.1   c0,0,0,0,0,0c0,0,0,0,0,0h9.3c0,0,0,0,0,0c0,0,0,0,0,0c0.4,0,0.8-0.2,1-0.5c0.1-0.1,0.1-0.2,0.2-0.3c0-0.1,0.1-0.2,0.1-0.4   c0,0,0-0.1,0-0.1V2.1z"
         fill="#414347"
         style="fill:#f9ffff;fill-opacity:1" /><path
         id="path15"
         d="M306.9,26c0-0.6-0.5-1.1-1.2-1.2c0,0-9.6,0-9.6,0c-0.6,0.1-1.1,0.6-1.2,1.2c0,0,0,65.9,0,65.9   c0,0.5,0.3,0.9,0.7,1.1c0,0,0.1,0,0.1,0c0.1,0.1,0.3,0.1,0.4,0.1c0,0,9.4,0,9.5,0c0.4,0,0.8-0.2,1-0.5c0.1-0.1,0.1-0.2,0.2-0.3   c0-0.1,0.1-0.2,0.1-0.4C306.9,91.9,306.9,26,306.9,26z"
         fill="#414347"
         style="fill:#f9ffff;fill-opacity:1" /><path
         id="path17"
         d="M306.9,1.9c0-0.6-0.5-1.2-1.2-1.2c0,0-9.6,1.5-9.6,1.5c-0.6,0.1-1.1,0.6-1.2,1.2c0,0,0,10.6,0,10.6   c0,0.5,0.3,0.9,0.7,1.1c0,0,0.1,0,0.1,0c0.1,0.1,0.3,0.1,0.4,0.1c0,0,9.4,0,9.5,0c0.4,0,0.8-0.2,1-0.5c0.1-0.1,0.1-0.2,0.2-0.3   c0-0.1,0.1-0.2,0.1-0.4C306.9,14.1,306.9,1.9,306.9,1.9z"
         fill="#414347"
         style="fill:#f9ffff;fill-opacity:1" /><path
         id="path19"
         d="M184.7,4.3c-0.1-0.1-0.3-0.2-0.4-0.3c-0.5-0.3-1-0.6-1-0.6c-2.8-1.5-6.3-2.6-10.6-2.6   c-12.4,0-20.1,8.9-20.1,22.7v4.3c0,0-6.8,0-6.8,0c-0.6,0-1.1,0.6-1.2,1.2c0,0,0,8.2,0,8.3c0,0.7,0.6,1.2,1.2,1.2c0,0,6.7,0,6.7,0   s0,53.4,0,53.5c0.1,0.6,0.6,1.1,1.2,1.1c0,0,9.5,0,9.5,0c0.7,0,1.2-0.5,1.2-1.2c0,0,0-53.4,0-53.4s15,0,15,0c0.7,0,1.3-0.6,1.3-1.3   v-8.1c0-0.7-0.5-1.2-1.2-1.3c0,0-0.1,0-0.2,0h-14.9v-4.3c0-8.1,3.4-12.4,9.9-12.4c2.1,0,3.7,0.4,5.4,1.3c0,0,0.1,0,0.1,0   c0.1,0.1,0.3,0.1,0.5,0.1c0.4,0,0.8-0.2,1-0.5c0.1-0.1,0.1-0.2,0.2-0.3c0.7-1.2,1.9-3.3,3.4-5.9c0.1-0.1,0.1-0.2,0.2-0.3   c0-0.1,0.1-0.3,0.1-0.4C185,4.8,184.9,4.5,184.7,4.3z"
         fill="#414347"
         style="fill:#f9ffff;fill-opacity:1" /></g><flowRoot
       style="font-style:normal;font-weight:normal;font-size:40px;line-height:125%;font-family:sans-serif;letter-spacing:0px;word-spacing:0px;fill:#000000;fill-opacity:1;stroke:none;stroke-width:1px;stroke-linecap:butt;stroke-linejoin:miter;stroke-opacity:1"
       id="flowRoot4153"
       xml:space="preserve"><flowRegion
         id="flowRegion4155"><rect
           y="120.29868"
           x="279.3855"
           height="42.60424"
           width="112.24579"
           id="rect4157" /></flowRegion><flowPara
         id="flowPara4159">staf</flowPara></flowRoot></g><g
     id="layer3"
     transform="matrix(1.3185472,0,0,1.3185472,-123.29048,-30.239092)"><path
       id="rect4194"
       d="m 287.1677,63.19569 98.14936,0 0,30.009572 -98.14936,0 z"
       style="opacity:0.95999995;fill:#6c83ac;fill-opacity:1;stroke:#6c83ac;stroke-width:3.44575238;stroke-linecap:round;stroke-linejoin:round;stroke-miterlimit:0;stroke-dasharray:none;stroke-dashoffset:0;stroke-opacity:1"
       inkscape:connector-curvature="0" /><g
       id="flowRoot4207"
       style="font-style:normal;font-variant:normal;font-weight:600;font-stretch:normal;font-size:40.00080109px;line-height:125%;font-family:'Proxima Nova';-inkscape-font-specification:'Proxima Nova, Semi-Bold';text-align:start;letter-spacing:0px;word-spacing:0px;writing-mode:lr-tb;text-anchor:start;fill:#ffffff;fill-opacity:1;stroke:none;stroke-width:1px;stroke-linecap:butt;stroke-linejoin:miter;stroke-opacity:1"
       transform="matrix(0.6936111,0,0,0.6936111,143.81199,-16.119082)"><path
         id="path9091"
         style="font-style:normal;font-variant:normal;font-weight:600;font-stretch:normal;font-size:40.00080109px;line-height:125%;font-family:'Proxima Nova';-inkscape-font-specification:'Proxima Nova, Semi-Bold';text-align:start;writing-mode:lr-tb;text-anchor:start;fill:#ffffff;fill-opacity:1"
         d="m 234.03344,152.08627 c 7.16015,0 10.32021,-3.84008 10.32021,-8.28017 0,-9.9202 -15.52031,-6.84013 -15.52031,-11.84023 0,-1.96004 1.76003,-3.32007 4.48009,-3.32007 2.80006,0 5.64011,0.96002 7.76015,3.08006 l 2.64006,-3.48007 c -2.44005,-2.40005 -5.84012,-3.76007 -9.9602,-3.76007 -5.88012,0 -9.7202,3.40006 -9.7202,7.84015 0,9.8002 15.52031,6.32013 15.52031,11.92024 0,1.80004 -1.48003,3.68008 -5.3201,3.68008 -3.72008,0 -6.64014,-1.76004 -8.44017,-3.72008 l -2.64005,3.64007 c 2.40004,2.48005 5.96011,4.24009 10.88021,4.24009 z"
         inkscape:connector-curvature="0" /><path
         id="path9093"
         style="font-style:normal;font-variant:normal;font-weight:600;font-stretch:normal;font-size:40.00080109px;line-height:125%;font-family:'Proxima Nova';-inkscape-font-specification:'Proxima Nova, Semi-Bold';text-align:start;writing-mode:lr-tb;text-anchor:start;fill:#ffffff;fill-opacity:1"
         d="m 259.27332,151.60626 0,-22.56045 8.08017,0 0,-4.12008 -20.84042,0 0,4.12008 8.08016,0 0,22.56045 4.68009,0 z"
         inkscape:connector-curvature="0" /><path
         id="path9095"
         style="font-style:normal;font-variant:normal;font-weight:600;font-stretch:normal;font-size:40.00080109px;line-height:125%;font-family:'Proxima Nova';-inkscape-font-specification:'Proxima Nova, Semi-Bold';text-align:start;writing-mode:lr-tb;text-anchor:start;fill:#ffffff;fill-opacity:1"
         d="m 292.74274,151.60626 -10.48021,-26.68053 -5.84011,0 -10.48021,26.68053 5.3201,0 1.96004,-5.1601 12.24025,0 1.96004,5.1601 5.3201,0 z m -8.60017,-9.28019 -9.60019,0 4.8001,-12.72025 4.80009,12.72025 z"
         inkscape:connector-curvature="0" /><path
         id="path9097"
         style="font-style:normal;font-variant:normal;font-weight:600;font-stretch:normal;font-size:40.00080109px;line-height:125%;font-family:'Proxima Nova';-inkscape-font-specification:'Proxima Nova, Semi-Bold';text-align:start;writing-mode:lr-tb;text-anchor:start;fill:#ffffff;fill-opacity:1"
         d="m 300.33602,151.60626 0,-11.56023 13.32027,0 0,-4.12008 -13.32027,0 0,-6.88014 13.60028,0 0,-4.12008 -18.28037,0 0,26.68053 4.68009,0 z"
         inkscape:connector-curvature="0" /><path
         id="path9099"
         style="font-style:normal;font-variant:normal;font-weight:600;font-stretch:normal;font-size:40.00080109px;line-height:125%;font-family:'Proxima Nova';-inkscape-font-specification:'Proxima Nova, Semi-Bold';text-align:start;writing-mode:lr-tb;text-anchor:start;fill:#ffffff;fill-opacity:1"
         d="m 322.83647,151.60626 0,-11.56023 13.32027,0 0,-4.12008 -13.32027,0 0,-6.88014 13.60028,0 0,-4.12008 -18.28037,0 0,26.68053 4.68009,0 z"
         inkscape:connector-curvature="0" /></g></g></svg>